<svg version="1.0" xmlns="http://www.w3.org/2000/svg" width="800.000000" height="800.000000" viewBox="0 0 800.000000 800.000000" preserveAspectRatio="xMidYMid meet">
  <metadata>
    <rdf:RDF xmlns:rdf="http://www.w3.org/1999/02/22-rdf-syntax-ns#" xmlns:rdfs="http://www.w3.org/2000/01/rdf-schema#" xmlns:dc="http://purl.org/dc/elements/1.1/">
      <rdf:Description dc:format="image/svg+xml" dc:Label="1" dc:ContentProducer="001191330110MACRLGPT8B00000" dc:ProduceID="388796614" dc:ReservedCode1="I/uYDwAtUfRo8EhG2UadR4dnOqfY4itSDugWjbMTSbM=" dc:ContentPropagator="001191330110MACRLGPT8B00000" dc:PropagateID="388796614" dc:ReservedCode2="I/uYDwAtUfRo8EhG2UadR4dnOqfY4itSDugWjbMTSbM="/>
    </rdf:RDF>
  </metadata>
  <g transform="translate(0.000000,800.000000) scale(0.100000,-0.100000)" fill="#000000" stroke="none">
    <path d="M3828 6055 c-2 -2 -39 -6 -83 -9 -230 -20 -386 -44 -556 -86 -389 -98 -645 -252 -740 -446 l-34 -69 0 -855 0 -855 32 -68 c73 -154 248 -275 518 -361 79 -25 248 -57 256 -49 3 5 9 42 13 84 l6 75 -118 26 c-272 60 -455 161 -524 289 -22 42 -23 56 -26 272 -2 164 0 227 8 227 6 0 26 -11 43 -24 100 -76 371 -177 569 -211 l36 -7 7 59 c3 32 8 69 10 83 4 25 1 26 -68 39 -199 36 -433 138 -522 227 -80 79 -85 104 -85 406 0 157 4 248 10 248 5 0 31 -16 57 -36 123 -94 366 -188 629 -244 206 -43 362 -60 609 -67 297 -8 503 10 783 68 256 52 495 147 630 249 36 28 54 36 58 27 2 -7 3 -561 2 -1232 l-3 -1220 -23 -43 c-108 -203 -492 -367 -1012 -433 -137 -18 -573 -18 -700 0 -484 66 -856 211 -980 383 -54 74 -60 114 -60 405 0 250 -1 264 -20 283 -29 29 -90 27 -119 -4 -22 -24 -22 -25 -19 -327 l3 -304 32 -68 c140 -294 628 -494 1339 -548 258 -20 623 11 890 76 419 100 681 252 791 458 l38 72 0 1450 0 1450 -31 65 c-53 111 -151 203 -307 289 -203 112 -513 199 -817 231 -63 6 -150 16 -192 21 -65 8 -322 11 -330 4z m357 -175 c479 -34 903 -174 1074 -354 88 -94 103 -167 53 -247 -85 -134 -309 -252 -628 -332 -425 -107 -1013 -108 -1444 -2 -324 80 -544 196 -632 334 -101 161 87 348 479 477 315 104 727 150 1098 124z"/>
    <path d="M3882 4124 l-22 -15 0 -693 0 -693 24 -12 c17 -10 81 -12 252 -9 225 4 230 4 316 34 191 68 315 206 374 419 26 92 31 407 9 517 -31 156 -114 288 -230 366 -122 82 -219 102 -504 102 -162 0 -200 -3 -219 -16z m531 -174 c119 -37 206 -128 249 -260 29 -90 37 -341 14 -449 -58 -273 -228 -390 -556 -379 l-95 3 -3 553 -2 552 164 0 c136 0 175 -3 229 -20z"/>
  </g>
</svg>